<svg width="67" height="60" viewBox="0 0 167 168" fill="none" xmlns="http://www.w3.org/2000/svg">
<path d="M0.151367 48.2752V118.389L49.0708 167.514H119.354L166.849 119.816V50.1827L117.696 0.817139H47.6457L0.151367 48.2752Z" fill="#EE4D4D"/>
<path d="M147.237 94.18V74.4431L132.426 71.2022L127.792 59.319L135.451 45.8154L121.31 32.3118L108.347 39.8738L96.4633 35.5526L93.6654 20.4286H73.7772L70.5364 35.5526L57.5729 39.8738L44.6094 32.3118L32.7262 45.2752L40.2882 59.319L34.8868 71.2022L19.7627 74.7996V93.8883L34.8868 97.1292L41.3685 110.093L32.7262 124.136L44.6094 134.939L60.8137 127.377L70.5364 131.698L74.0257 147.903H93.2225L97.5436 131.698L109.427 127.377L122.39 134.939L134.273 121.976L126.711 109.012L132.113 97.1292L147.237 94.18ZM84.04 112.253C78.378 112.253 72.8431 110.574 68.1353 107.429C63.4275 104.283 59.7582 99.8119 57.5914 94.5809C55.4247 89.3499 54.8577 83.5938 55.9624 78.0406C57.067 72.4873 59.7935 67.3864 63.7971 63.3827C67.8008 59.3791 72.9018 56.6525 78.455 55.5479C84.0082 54.4433 89.7643 55.0102 94.9953 57.177C100.226 59.3438 104.697 63.0131 107.843 67.7209C110.989 72.4287 112.668 77.9635 112.668 83.6256C112.669 87.3854 111.93 91.1087 110.491 94.5826C109.053 98.0565 106.945 101.213 104.286 103.872C101.627 106.53 98.4709 108.639 94.997 110.077C91.5231 111.515 87.7998 112.255 84.04 112.253Z" fill="white"/>
</svg>
