<svg xmlns="http://www.w3.org/2000/svg" viewBox="0 0 570 420"><defs><style>.cls-1{font-size:354.84px;font-family:TwCenMT-CondensedExtraBold, Tw Cen MT Condensed Extra Bold;font-weight:800;}.cls-1,.cls-2{fill:#ee4d4d;}.cls-3,.cls-6{fill:#fff;}.cls-4,.cls-5{fill:none;}.cls-4,.cls-5,.cls-6{stroke:#fff;stroke-miterlimit:10;}.cls-4{stroke-width:3px;}.cls-5,.cls-6{stroke-width:5px;}</style></defs><g id="Camada_2" data-name="Camada 2"><g id="Camada_6" data-name="Camada 6"><text class="cls-1" transform="translate(0 324.71)">S</text><text class="cls-1" transform="translate(98.45 293.07)">T</text><text class="cls-1" transform="translate(389.93 293.07)">P</text><polygon class="cls-2" points="174.84 165.6 174.84 279.55 254.48 359.39 368.9 359.39 446.22 281.87 446.22 168.7 366.2 88.47 252.16 88.47 174.84 165.6"/><polygon class="cls-3" points="187.95 171.23 187.95 274.17 259.89 346.3 363.26 346.3 433.11 276.27 433.11 174.03 360.82 101.56 257.8 101.56 187.95 171.23"/><polygon class="cls-2" points="197.34 175.27 197.34 270.32 263.77 336.93 359.22 336.93 423.72 272.26 423.72 177.86 356.97 110.93 261.84 110.93 197.34 175.27"/><line class="cls-4" x1="310.53" y1="116.91" x2="310.53" y2="142.11"/><line class="cls-4" x1="227.73" y1="223.93" x2="202.6" y2="223.93"/><line class="cls-4" x1="310.53" y1="304.5" x2="310.53" y2="329.7"/><line class="cls-4" x1="419.19" y1="223.93" x2="394.06" y2="223.93"/><line class="cls-4" x1="236.98" y1="182.48" x2="218.47" y2="165.43"/><line class="cls-4" x1="270.09" y1="149.88" x2="251.59" y2="132.84"/><line class="cls-4" x1="373.51" y1="313.16" x2="355.01" y2="296.12"/><line class="cls-4" x1="406.63" y1="280.57" x2="388.12" y2="263.52"/><line class="cls-4" x1="348.92" y1="152.08" x2="365.92" y2="133.53"/><line class="cls-4" x1="381.43" y1="185.28" x2="398.43" y2="166.73"/><line class="cls-4" x1="225.41" y1="276.88" x2="244.43" y2="260.42"/><line class="cls-4" x1="253.89" y1="313.62" x2="272.91" y2="297.16"/><line class="cls-5" x1="310.53" y1="159.74" x2="310.53" y2="223.34"/><line class="cls-5" x1="357.71" y1="223.34" x2="310.53" y2="223.34"/><ellipse class="cls-6" cx="310.53" cy="223.93" rx="6.09" ry="6.1"/><polygon class="cls-3" points="388.11 111.12 385.02 108.03 390.6 102.41 393.7 105.49 388.11 111.12"/><path class="cls-3" d="M222.12,325.89s-43.84,72,25.12,24.75"/><path class="cls-3" d="M377.13,349.2s70.59,45.92,25.37-24.49"/><path class="cls-3" d="M423.08,118.22c-12.45,12.55-57.79-32.65-45.34-45.2a32,32,0,1,1,45.34,45.2Z"/><polygon class="cls-3" points="230.54 111.78 227.46 114.89 221.84 109.29 224.92 106.19 230.54 111.78"/><path class="cls-3" d="M237.62,76.72c12.52,12.49-32.57,57.95-45.09,45.46a32,32,0,0,1,45.09-45.46Z"/></g></g></svg>