<svg width="136" height="136" viewBox="0 0 136 136" fill="none" xmlns="http://www.w3.org/2000/svg">
<path d="M0 38.7187V95.9209L39.911 136H97.2517L136 97.0855V40.2749L95.8986 0H38.7483L0 38.7187Z" fill="#EE4D4D"/>
<path d="M120 76.1702V60.0678L107.917 57.4237L104.136 47.7288L110.384 36.7119L98.8475 25.6949L88.2712 31.8644L78.5763 28.339L76.2936 16H60.0678L57.4237 28.339L46.8475 31.8644L36.2712 25.6949L26.5763 36.2712L32.7458 47.7288L28.339 57.4237L16 60.3586V75.9322L28.339 78.5763L33.6271 89.1525L26.5763 100.61L36.2712 109.424L49.4915 103.254L57.4237 106.78L60.2705 120H75.9322L79.4576 106.78L89.1525 103.254L99.7288 109.424L109.424 98.8475L103.254 88.2712L107.661 78.5763L120 76.1702ZM68.4407 90.9153C63.8213 90.9153 59.3057 89.5454 55.4648 86.9791C51.624 84.4127 48.6304 80.765 46.8626 76.4973C45.0949 72.2295 44.6323 67.5334 45.5335 63.0028C46.4347 58.4722 48.6592 54.3106 51.9255 51.0442C55.1919 47.7778 59.3536 45.5534 63.8842 44.6522C68.4148 43.751 73.1109 44.2135 77.3786 45.9813C81.6463 47.749 85.294 50.7426 87.8604 54.5835C90.4268 58.4243 91.7966 62.94 91.7966 67.5593C91.7978 70.6268 91.1944 73.6644 90.0211 76.4986C88.8478 79.3328 87.1274 81.908 84.9584 84.077C82.7894 86.2461 80.2142 87.9664 77.38 89.1397C74.5458 90.3131 71.5081 90.9164 68.4407 90.9153Z" fill="white"/>
</svg>
